<svg xmlns="http://www.w3.org/2000/svg" viewBox="0 0 512 512" role="img" aria-label="RAJ-AGRIPAY mark"><defs><linearGradient id="g" x1="0" y1="0" x2="1" y2="1"><stop offset="0" stop-color="#0b3157"/><stop offset="1" stop-color="#0d5e9e"/></linearGradient><linearGradient id="leaf" x1="0" y1="0" x2="1" y2="1"><stop offset="0" stop-color="#27a36d"/><stop offset="1" stop-color="#0f7f67"/></linearGradient></defs><rect width="512" height="512" rx="118" fill="url(#g)"/><path d="M126 132h260v46H126zM126 220h260v32H126zM126 324h260v46H126z" fill="#dbeaf5" opacity=".28"/><text x="116" y="342" font-family="Inter,Arial,DejaVu Sans,sans-serif" font-size="258" font-weight="800" fill="#fff">₹</text><path d="M343 112c48 5 81 29 94 72-43 5-78-6-104-35 4-14 7-26 10-37Z" fill="url(#leaf)"/><path d="M330 121c7 46 1 79-25 108-24-31-31-66-21-105 14-3 29-4 46-3Z" fill="#35b77e"/><circle cx="394" cy="118" r="18" fill="#f4a62a"/><path d="M134 397h244" stroke="#6fd0b7" stroke-width="22" stroke-linecap="round"/></svg>